
<svg xmlns="http://www.w3.org/2000/svg"  viewBox="0 0 50 50" width="50px" height="50px"><path d="M 14.798828 3 C 14.56374 3.0075786 14.327469 3.0295061 14.091797 3.0664062 C 13.463337 3.1648068 12.834694 3.374426 12.224609 3.7265625 C 9.6892525 5.1900973 8.2653516 7.4696865 8.0351562 9.8691406 C 7.9157449 11.113832 8.1146727 12.378128 8.5917969 13.580078 C 6.8488276 15.330689 5.2892032 17.134435 4.125 18.886719 C 2.8516312 20.803311 2 22.647905 2 24.417969 C 2 26.533693 3.2497898 28.486152 5.0117188 30.269531 C 6.2824789 31.555763 7.8587962 32.765769 9.5683594 33.878906 C 11.038443 35.338498 12.378906 37.404887 12.378906 40.230469 C 12.378906 42.194648 13.292275 43.773726 14.556641 44.857422 C 15.821006 45.941118 17.410825 46.604563 18.958984 47.046875 C 22.055304 47.9315 25.087891 47.921875 25.087891 47.921875 C 25.087891 47.921875 28.118524 47.931475 31.214844 47.046875 C 32.763003 46.604563 34.352821 45.941118 35.617188 44.857422 C 36.881552 43.773726 37.794922 42.194648 37.794922 40.230469 C 37.794922 37.173952 39.361666 34.996298 40.966797 33.525391 L 40.960938 33.519531 C 42.461975 32.505119 43.85173 31.419919 44.988281 30.269531 C 46.75021 28.486152 48 26.533693 48 24.417969 C 48 22.647905 47.148369 20.803311 45.875 18.886719 C 44.710797 17.134435 43.151173 15.330689 41.408203 13.580078 C 41.885327 12.378128 42.084255 11.113832 41.964844 9.8691406 C 41.734648 7.4696865 40.310748 5.1900973 37.775391 3.7265625 C 37.165306 3.374426 36.536663 3.1648067 35.908203 3.0664062 C 34.022822 2.7712049 32.129058 3.4695485 30.660156 4.2773438 C 30.398989 4.4209679 30.178788 4.5743836 29.939453 4.7246094 C 28.061101 3.6882467 26.427638 3 25 3 C 23.572362 3 21.938899 3.6882467 20.060547 4.7246094 C 19.821212 4.5743836 19.601011 4.4209679 19.339844 4.2773438 C 18.054555 3.5705229 16.444447 2.9469495 14.798828 3 z M 25 5 C 25.570492 5 26.721322 5.3571225 28.109375 6.0253906 C 27.662975 6.3972652 27.300781 6.7285156 27.300781 6.7285156 A 1.0001 1.0001 0 0 0 27.044922 7.7402344 C 27.044922 7.7402344 29.437733 15.116421 38.455078 16.978516 A 1.0001 1.0001 0 0 0 39.375 16.695312 C 39.765833 16.291912 40.105113 15.861082 40.412109 15.417969 C 41.912732 16.964308 43.239611 18.532163 44.210938 19.994141 C 45.371569 21.741048 46 23.341032 46 24.417969 C 46 25.704744 45.134243 27.27438 43.564453 28.863281 C 41.994663 30.452183 39.78466 32.026197 37.40625 33.392578 C 35.02784 34.758959 32.480108 35.924069 30.238281 36.738281 C 27.996454 37.552493 26.013915 38 25 38 C 23.986085 38 22.003546 37.552493 19.761719 36.738281 C 17.519892 35.924069 14.97216 34.758959 12.59375 33.392578 C 11.993304 33.047626 11.405372 32.68863 10.833984 32.320312 C 10.742318 32.231555 10.650035 32.134624 10.558594 32.050781 L 10.511719 32.101562 C 8.9512885 31.071929 7.5320454 29.97313 6.4355469 28.863281 C 4.865757 27.27438 4 25.704744 4 24.417969 C 4 23.341032 4.6284313 21.741048 5.7890625 19.994141 C 6.7603882 18.532163 8.087268 16.964308 9.5878906 15.417969 C 9.8948873 15.861082 10.234167 16.291912 10.625 16.695312 A 1.0001 1.0001 0 0 0 11.544922 16.978516 C 20.562267 15.116421 22.955078 7.7402344 22.955078 7.7402344 A 1.0001 1.0001 0 0 0 22.699219 6.7285156 C 22.699219 6.7285156 22.337025 6.3972652 21.890625 6.0253906 C 23.278678 5.3571225 24.429508 5 25 5 z M 15.09375 5.0019531 C 15.311597 5.0062545 15.530927 5.0276616 15.751953 5.0625 C 16.636057 5.2018535 17.536221 5.5689052 18.376953 6.03125 C 19.760738 6.7922365 20.44166 7.4704989 20.783203 7.7832031 C 20.219797 9.1695001 18.043677 13.281541 11.757812 14.837891 C 10.508711 13.351541 9.8720146 11.659267 10.025391 10.060547 C 10.194195 8.3010009 11.170967 6.6444495 13.224609 5.4589844 C 13.805733 5.123564 14.440208 4.9890489 15.09375 5.0019531 z M 34.90625 5.0019531 C 35.559792 4.9890489 36.194267 5.1235638 36.775391 5.4589844 C 38.829033 6.6444495 39.805805 8.3010009 39.974609 10.060547 C 40.127985 11.659267 39.49129 13.351541 38.242188 14.837891 C 31.956323 13.281541 29.780203 9.1695001 29.216797 7.7832031 C 29.55834 7.4704989 30.239262 6.7922365 31.623047 6.03125 C 32.463779 5.5689052 33.363943 5.2018535 34.248047 5.0625 C 34.469073 5.0276616 34.688403 5.0062545 34.90625 5.0019531 z M 17.816406 6.6347656 C 17.816406 6.6347656 16.725385 7.0913153 15.322266 8.0273438 A 2 2 0 0 0 15 8 A 2 2 0 0 0 13.005859 9.8789062 C 12.297982 10.550401 11.604956 11.318744 11.011719 12.208984 L 12.675781 13.318359 C 13.066643 12.731814 13.525439 12.214404 14 11.730469 A 2 2 0 0 0 15 12 A 2 2 0 0 0 16.908203 9.4101562 C 17.8818 8.8030946 18.605469 8.4726562 18.605469 8.4726562 L 17.816406 6.6347656 z M 32.183594 6.6347656 L 31.394531 8.4726562 C 31.394531 8.4726562 32.1182 8.8030946 33.091797 9.4101562 A 2 2 0 0 0 35 12 A 2 2 0 0 0 36.001953 11.730469 C 36.476162 12.214148 36.933621 12.732209 37.324219 13.318359 L 38.988281 12.208984 C 38.395044 11.318744 37.702018 10.550401 36.994141 9.8789062 A 2 2 0 0 0 35 8 A 2 2 0 0 0 34.677734 8.0273438 C 33.274615 7.0913153 32.183594 6.6347656 32.183594 6.6347656 z M 10.017578 20.994141 A 1.0001 1.0001 0 0 0 9.5644531 21.099609 C 9.5644531 21.099609 8.5782026 21.569805 7.78125 22.578125 C 6.9842974 23.586445 6.3716517 25.279017 7.0507812 27.316406 A 1.0005644 1.0005644 0 1 0 8.9492188 26.683594 C 8.8189051 26.292653 8.7576599 25.951249 8.7402344 25.644531 C 11.40011 27.267764 18.220245 31 25 31 C 31.779755 31 38.59989 27.267764 41.259766 25.644531 C 41.24234 25.951249 41.181095 26.292653 41.050781 26.683594 A 1.0005646 1.0005646 0 1 0 42.949219 27.316406 C 43.628348 25.279017 43.015699 23.586445 42.21875 22.578125 C 41.421797 21.569805 40.435547 21.099609 40.435547 21.099609 A 1.0001 1.0001 0 0 0 39.951172 20.994141 A 1.0001 1.0001 0 0 0 39.564453 22.900391 C 39.564453 22.900391 40.082624 23.168079 40.552734 23.710938 C 38.510981 24.964544 31.483141 29 25 29 C 18.516859 29 11.489019 24.964544 9.4472656 23.710938 C 9.917376 23.168079 10.435547 22.900391 10.435547 22.900391 A 1.0001 1.0001 0 0 0 10.017578 20.994141 z M 36.693359 36.058594 C 36.153929 37.272604 35.794922 38.655719 35.794922 40.230469 C 35.794922 41.61129 35.245337 42.541977 34.314453 43.339844 C 33.383569 44.137711 32.044856 44.729109 30.666016 45.123047 C 27.908335 45.910922 25.087891 45.921875 25.087891 45.921875 C 25.087891 45.921875 22.265493 45.910925 19.507812 45.123047 C 18.128972 44.729109 16.790259 44.137711 15.859375 43.339844 C 14.928491 42.541977 14.378906 41.61129 14.378906 40.230469 C 14.378906 38.70876 14.045352 37.364512 13.537109 36.179688 C 15.421266 37.150311 17.327011 37.982442 19.080078 38.619141 C 21.43922 39.47596 23.475415 40 25 40 C 26.524585 40 28.56078 39.47596 30.919922 38.619141 C 32.744697 37.956398 34.734308 37.080815 36.693359 36.058594 z"/></svg>